<?xml version="1.0" encoding="UTF-8" standalone="no"?>
<!DOCTYPE svg PUBLIC "-//W3C//DTD SVG 1.1//EN"
 "http://www.w3.org/Graphics/SVG/1.1/DTD/svg11.dtd">
<!-- Generated by graphviz version 14.1.2 (20260126.1125)
 -->
<!-- Title: Graph Legend Pages: 1 -->
<svg width="762pt" height="202pt"
 viewBox="0.00 0.00 762.00 202.00" xmlns="http://www.w3.org/2000/svg" xmlns:xlink="http://www.w3.org/1999/xlink">
<g id="graph0" class="graph" transform="scale(1 1) rotate(0) translate(4 197.5)">
<title>Graph Legend</title>
<polygon fill="white" stroke="none" points="-4,4 -4,-197.5 757.75,-197.5 757.75,4 -4,4"/>
<!-- Node9 -->
<g id="node1" class="node">
<title>Node9</title>
<polygon fill="#bfbfbf" stroke="black" points="441.88,-27.5 353.12,-27.5 353.12,0 441.88,0 441.88,-27.5"/>
<text xml:space="preserve" text-anchor="middle" x="397.5" y="-8.3" font-family="Source Sans Pro" font-size="16.00">Inherited</text>
</g>
<!-- Node10 -->
<g id="node2" class="node">
<title>Node10</title>
<polygon fill="none" stroke="black" points="103,-110.5 0,-110.5 0,-83 103,-83 103,-110.5"/>
<text xml:space="preserve" text-anchor="middle" x="51.5" y="-91.3" font-family="Source Sans Pro" font-size="16.00">PublicBase</text>
</g>
<!-- Node10&#45;&gt;Node9 -->
<g id="edge1" class="edge">
<title>Node10&#45;&gt;Node9</title>
<path fill="none" stroke="midnightblue" d="M114.64,-80.54C156.55,-70.49 212.78,-57.08 262.5,-45.5 292.58,-38.49 326.48,-30.77 352.78,-24.82"/>
<polygon fill="midnightblue" stroke="midnightblue" points="113.87,-77.13 104.97,-82.86 115.51,-83.93 113.87,-77.13"/>
</g>
<!-- Node11 -->
<g id="node3" class="node">
<title>Node11</title>
<polygon fill="none" stroke="red" points="99.62,-193.5 3.38,-193.5 3.38,-166 99.62,-166 99.62,-193.5"/>
<text xml:space="preserve" text-anchor="middle" x="51.5" y="-174.3" font-family="Source Sans Pro" font-size="16.00">Truncated</text>
</g>
<!-- Node11&#45;&gt;Node10 -->
<g id="edge2" class="edge">
<title>Node11&#45;&gt;Node10</title>
<path fill="none" stroke="midnightblue" d="M51.5,-154.63C51.5,-140.24 51.5,-122.53 51.5,-110.73"/>
<polygon fill="midnightblue" stroke="midnightblue" points="48,-154.22 51.5,-164.22 55,-154.22 48,-154.22"/>
</g>
<!-- Node13 -->
<g id="node4" class="node">
<title>Node13</title>
<polygon fill="none" stroke="black" points="251.88,-110.5 121.12,-110.5 121.12,-83 251.88,-83 251.88,-110.5"/>
<text xml:space="preserve" text-anchor="middle" x="186.5" y="-91.3" font-family="Source Sans Pro" font-size="16.00">ProtectedBase</text>
</g>
<!-- Node13&#45;&gt;Node9 -->
<g id="edge3" class="edge">
<title>Node13&#45;&gt;Node9</title>
<path fill="none" stroke="darkgreen" d="M231.5,-78.48C270.89,-63.35 327.29,-41.7 363.14,-27.94"/>
<polygon fill="darkgreen" stroke="darkgreen" points="230.36,-75.16 222.28,-82.01 232.87,-81.7 230.36,-75.16"/>
</g>
<!-- Node14 -->
<g id="node5" class="node">
<title>Node14</title>
<polygon fill="none" stroke="black" points="380.75,-110.5 270.25,-110.5 270.25,-83 380.75,-83 380.75,-110.5"/>
<text xml:space="preserve" text-anchor="middle" x="325.5" y="-91.3" font-family="Source Sans Pro" font-size="16.00">PrivateBase</text>
</g>
<!-- Node14&#45;&gt;Node9 -->
<g id="edge4" class="edge">
<title>Node14&#45;&gt;Node9</title>
<path fill="none" stroke="#8b1a1a" d="M344.67,-74.18C357.82,-59.39 374.84,-40.24 385.96,-27.73"/>
<polygon fill="#8b1a1a" stroke="#8b1a1a" points="342.1,-71.81 338.07,-81.6 347.33,-76.46 342.1,-71.81"/>
</g>
<!-- Node15 -->
<g id="node6" class="node">
<title>Node15</title>
<polygon fill="none" stroke="#bfbfbf" points="539.75,-110.5 399.25,-110.5 399.25,-83 539.75,-83 539.75,-110.5"/>
<text xml:space="preserve" text-anchor="middle" x="469.5" y="-91.3" font-family="Source Sans Pro" font-size="16.00">Undocumented</text>
</g>
<!-- Node15&#45;&gt;Node9 -->
<g id="edge5" class="edge">
<title>Node15&#45;&gt;Node9</title>
<path fill="none" stroke="midnightblue" d="M450.33,-74.18C437.18,-59.39 420.16,-40.24 409.04,-27.73"/>
<polygon fill="midnightblue" stroke="midnightblue" points="447.67,-76.46 456.93,-81.6 452.9,-71.81 447.67,-76.46"/>
</g>
<!-- Node16 -->
<g id="node7" class="node">
<title>Node16</title>
<polygon fill="none" stroke="black" points="679.38,-110.5 557.62,-110.5 557.62,-83 679.38,-83 679.38,-110.5"/>
<text xml:space="preserve" text-anchor="middle" x="618.5" y="-91.3" font-family="Source Sans Pro" font-size="16.00">Templ&lt; int &gt;</text>
</g>
<!-- Node16&#45;&gt;Node9 -->
<g id="edge6" class="edge">
<title>Node16&#45;&gt;Node9</title>
<path fill="none" stroke="midnightblue" d="M571.9,-78.67C530.61,-63.54 471.2,-41.76 433.48,-27.94"/>
<polygon fill="midnightblue" stroke="midnightblue" points="570.49,-81.88 581.08,-82.03 572.89,-75.31 570.49,-81.88"/>
</g>
<!-- Node17 -->
<g id="node8" class="node">
<title>Node17</title>
<polygon fill="none" stroke="black" points="673.75,-193.5 563.25,-193.5 563.25,-166 673.75,-166 673.75,-193.5"/>
<text xml:space="preserve" text-anchor="middle" x="618.5" y="-174.3" font-family="Source Sans Pro" font-size="16.00">Templ&lt; T &gt;</text>
</g>
<!-- Node17&#45;&gt;Node16 -->
<g id="edge7" class="edge">
<title>Node17&#45;&gt;Node16</title>
<path fill="none" stroke="orange" stroke-dasharray="5,2" d="M618.5,-154.63C618.5,-140.24 618.5,-122.53 618.5,-110.73"/>
<polygon fill="orange" stroke="orange" points="615,-154.22 618.5,-164.22 622,-154.22 615,-154.22"/>
<text xml:space="preserve" text-anchor="middle" x="647.75" y="-132.8" font-family="Source Sans Pro" font-size="16.00">&lt; int &gt;</text>
</g>
<!-- Node18 -->
<g id="node9" class="node">
<title>Node18</title>
<polygon fill="none" stroke="black" points="753.75,-110.5 697.25,-110.5 697.25,-83 753.75,-83 753.75,-110.5"/>
<text xml:space="preserve" text-anchor="middle" x="725.5" y="-91.3" font-family="Source Sans Pro" font-size="16.00">Used</text>
</g>
<!-- Node18&#45;&gt;Node9 -->
<g id="edge8" class="edge">
<title>Node18&#45;&gt;Node9</title>
<path fill="none" stroke="#9a32cd" stroke-dasharray="5,2" d="M686.06,-82.46C594.5,-56.4 497.49,-35.23 442.23,-23.77"/>
<polygon fill="#9a32cd" stroke="#9a32cd" points="684.88,-85.76 695.45,-85.16 686.81,-79.03 684.88,-85.76"/>
<text xml:space="preserve" text-anchor="middle" x="669.77" y="-49.8" font-family="Source Sans Pro" font-size="16.00">m_usedClass</text>
</g>
</g>
</svg>
